<svg width="1010px" height="1018px" viewBox="0 0 1010 1018" xmlns="http://www.w3.org/2000/svg">
  <g>
      <path stroke-width="30" stroke="#FFFFFF" fill="#FFFFFF" d="M543,781.4 C435.5,673.9 346.8,585.5 346,585.1 C344.9,584.5 311.5,610.4 220.7,682.2 L96.9,780.2 L49.2,755.7 L1.5,731.2 L1,489.5 C0.5,248.5 0.5,247.7 2.5,246.5 C3.6,245.8 25.3,234.6 50.7,221.6 L96.9,197.9 L221.1,296.1 L345.3,394.2 L542.1,197.4 L738.9,0.6 L786.2,19.7 C812.2,30.1 866.4,51.9 906.7,68.1 L979.9,97.5 L980,488.7 C980,858.9 979.9,880 978.2,880.9 C975.4,882.4 740.2,977 739.3,977 C738.9,977 650.5,889 543,781.4 Z M737.3,489.8 C737,379.1 736.8,288.2 736.7,287.7 C736.6,287.3 678.5,332.3 607.7,387.6 C536.9,442.9 479.1,488.7 479.3,489.3 C479.7,490.7 735.2,690.8 736.6,690.9 C737.5,691 737.6,639.3 737.3,489.8 Z M170.4,564.5 C210.9,523.5 244,489.5 244,489 C244,488.3 134.3,374.3 103.9,343.5 L96,335.5 L96,487.3 C96,570.7 96.2,639 96.4,639 C96.6,639 129.9,605.5 170.4,564.5 Z"></path>
  </g>
</svg>