<?xml version="1.0" standalone="no"?>
<!DOCTYPE svg PUBLIC "-//W3C//DTD SVG 20010904//EN" "http://www.w3.org/TR/2001/REC-SVG-20010904/DTD/svg10.dtd">
<!-- Created using Krita: http://krita.org -->
<svg xmlns="http://www.w3.org/2000/svg" 
    xmlns:xlink="http://www.w3.org/1999/xlink"
    xmlns:krita="http://krita.org/namespaces/svg/krita"
    xmlns:sodipodi="http://sodipodi.sourceforge.net/DTD/sodipodi-0.dtd"
    width="432pt"
    height="432pt"
    viewBox="0 0 432 432">
<defs>
  <linearGradient id="gradient0" gradientUnits="objectBoundingBox" x1="-0.343406674106757" y1="0.193611728907361" x2="1.0591700014771" y2="0.992016011179078" spreadMethod="pad">
   <stop stop-color="#b4b4b4" offset="0" stop-opacity="1"/>
   <stop stop-color="#4c4c4c" offset="1" stop-opacity="1"/>
  </linearGradient>
  <linearGradient id="gradient1" gradientUnits="objectBoundingBox" x1="-0.343406674106757" y1="0.199599725225059" x2="1.0591700014771" y2="0.989354682443547" spreadMethod="pad">
   <stop stop-color="#b4b4b4" offset="0" stop-opacity="1"/>
   <stop stop-color="#4c4c4c" offset="1" stop-opacity="1"/>
  </linearGradient>
  <linearGradient id="gradient2" gradientUnits="objectBoundingBox" x1="-0.343213569591664" y1="0.0105985651135758" x2="1.05212109181734" y2="0.795977621563666" spreadMethod="pad">
   <stop stop-color="#b4b4b4" offset="0" stop-opacity="1"/>
   <stop stop-color="#4c4c4c" offset="1" stop-opacity="1"/>
  </linearGradient>
  <linearGradient id="gradient3" gradientUnits="objectBoundingBox" x1="-0.343213569591664" y1="0.0132482061979279" x2="1.05212109181734" y2="0.806576194428693" spreadMethod="pad">
   <stop stop-color="#b4b4b4" offset="0" stop-opacity="1"/>
   <stop stop-color="#4c4c4c" offset="1" stop-opacity="1"/>
  </linearGradient>
  <linearGradient id="gradient4" gradientUnits="objectBoundingBox" x1="-0.0234877101561388" y1="0.00978065129974123" x2="1.08165711245716" y2="1" spreadMethod="pad">
   <stop stop-color="#b4b4b4" offset="0" stop-opacity="1"/>
   <stop stop-color="#4c4c4c" offset="1" stop-opacity="1"/>
  </linearGradient>
  <linearGradient id="gradient5" gradientUnits="objectBoundingBox" x1="-0.0234877101561388" y1="0.00978065132142196" x2="1.08165711245716" y2="1.0097806523364" spreadMethod="pad">
   <stop stop-color="#b4b4b4" offset="0" stop-opacity="1"/>
   <stop stop-color="#4c4c4c" offset="1" stop-opacity="1"/>
  </linearGradient>
  <linearGradient id="gradient6" gradientUnits="objectBoundingBox" x1="-0.858241816688079" y1="-0.459402497139074" x2="1.67077424478169" y2="1.45637004550428" spreadMethod="pad">
   <stop stop-color="#74d86a" offset="0.323809534311295" stop-opacity="1"/>
   <stop stop-color="#328f28" offset="0.738095223903656" stop-opacity="1"/>
  </linearGradient>
 </defs>
<path id="shape0" transform="matrix(1.00000000585912 0 0 0.999999973345422 105.77081866299 1.68171145540016)" fill="url(#gradient0)" fill-rule="evenodd" stroke="url(#gradient1)" stroke-opacity="0" stroke-width="1.2" stroke-linecap="square" stroke-linejoin="bevel" d="M41.6609 358.943C18.0078 324.855 0.781591 288.045 0 199.003C5.67917 135.876 13.7365 109.321 42.0092 67.2583C93.3722 -0.0156389 168.735 -12.5696 223.458 10.8765C339.155 66.6904 306.603 192.787 294.14 213.081C271.238 260.807 245.172 286.51 199.569 316.498C130.18 361.002 70.2648 363.916 41.6609 358.943Z"/><path id="shape01" transform="matrix(0.999999977205899 0 0 0.999999994288482 106.260000675306 67.3502395140889)" fill="url(#gradient2)" fill-rule="evenodd" stroke="url(#gradient3)" stroke-opacity="0" stroke-width="1.2" stroke-linecap="square" stroke-linejoin="bevel" d="M41.46 1.64977C39.16 8.88977 1.22 40.6098 0 148.65C1.38635 227.041 20.3797 262.134 41.299 293.105C62.1897 326.939 148.886 400.081 248.22 338.37C289.608 311.106 334.237 235.601 293.545 147.497C285.917 131.641 270.368 84.4655 190.74 37.2898C187.189 35.5721 117.98 -9.03023 41.46 1.64977Z"/><path id="shape011" transform="matrix(0.999999985806599 0 0 0.999999945157773 9.18132228449342 67.6029686299183)" fill="url(#gradient4)" fill-rule="evenodd" stroke="url(#gradient5)" stroke-opacity="0" stroke-width="1.2" stroke-linecap="square" stroke-linejoin="bevel" d="M0.418677 142.877C-2.15296 129.814 13.6985 20.1822 137.784 1.80664C206.184 -7.67336 261.857 22.4808 289.619 38.237C331.934 61.757 372.343 101.117 390.899 147.197C367.594 201.051 324.637 232.325 289.619 254.957C201.946 305.675 149.779 293.197 138.179 292.877C20.4634 275.272 -3.65044 177.175 0.418677 142.877Z"/><path id="shape02" transform="matrix(0.999999946256296 -0.000306726138476481 0.000306726134148796 0.999999960365573 106.079995360859 67.5480637030972)" fill="#ffffff" fill-rule="evenodd" stroke="#000000" stroke-opacity="0" stroke-width="1.2" stroke-linecap="square" stroke-linejoin="round" d="M41.4 1.45194C7.24365 50.0671 2.39739 95.9316 0 141.732C1.02173 204.76 11.1407 250.844 41.4 292.812C105.952 300.909 159.445 273.771 199.68 250.692C253.775 215.211 280.825 178.413 293.64 147.372C276.701 102.538 235.099 61.5262 189.72 36.1319C150.362 13.8256 99.3499 -5.54233 41.4 1.45194Z"/><path id="shape03" transform="matrix(1.00000004055073 0 0 0.999999970312216 146.602678565959 152.507507187172)" fill="url(#gradient6)" fill-rule="evenodd" stroke="#000000" stroke-opacity="0" stroke-width="2.4" stroke-linecap="square" stroke-linejoin="bevel" d="M3.905 12.3828C29.0913 -16.7616 70.3945 14.7634 85.6393 14.1537C100.023 14.717 140.418 -16.4073 167.797 12.3725C185.016 54.5253 122.939 77.6171 124.078 89.8322C121.459 104.298 119.523 153.498 85.7174 158.293C68.8973 155.913 52.1262 142.422 47.7103 92.2081C48.7603 77.0931 -16.3426 52.7025 3.90733 12.3875Z"/>
</svg>
